<svg width="36" height="36" viewBox="0 0 36 36" fill="none" xmlns="http://www.w3.org/2000/svg">
<path fill-rule="evenodd" clip-rule="evenodd" d="M1.82812 9.87891V5.83594C1.82812 3.62602 3.62605 1.82812 5.83594 1.82812H9.87891C10.3837 1.82812 10.793 1.41887 10.793 0.914062C10.793 0.409254 10.3837 0 9.87891 0H5.83594C2.61802 0 0 2.61798 0 5.83594V9.87891C0 10.3837 0.409254 10.793 0.914062 10.793C1.41887 10.793 1.82812 10.3837 1.82812 9.87891ZM9.87891 34.1719C10.3837 34.1719 10.793 34.5811 10.793 35.0859C10.793 35.5907 10.3837 36 9.87891 36H5.83594C2.61802 36 0 33.382 0 30.1641V26.1211C0 25.6163 0.409254 25.207 0.914062 25.207C1.41887 25.207 1.82812 25.6163 1.82812 26.1211V30.1641C1.82812 32.374 3.62605 34.1719 5.83594 34.1719H9.87891ZM36 26.1211V30.1641C36 33.382 33.382 36 30.1641 36H26.1211C25.6163 36 25.207 35.5907 25.207 35.0859C25.207 34.5811 25.6163 34.1719 26.1211 34.1719H30.1641C32.374 34.1719 34.1719 32.374 34.1719 30.1641V26.1211C34.1719 25.6163 34.5811 25.207 35.0859 25.207C35.5907 25.207 36 25.6163 36 26.1211ZM36 5.83594V9.87891C36 10.3837 35.5907 10.793 35.0859 10.793C34.5811 10.793 34.1719 10.3837 34.1719 9.87891V5.83594C34.1719 3.62602 32.374 1.82812 30.1641 1.82812H26.1211C25.6163 1.82812 25.207 1.41887 25.207 0.914062C25.207 0.409254 25.6163 0 26.1211 0H30.1641C33.382 0 36 2.61798 36 5.83594ZM24.308 26.6075C24.6931 26.2518 24.7169 25.6513 24.3612 25.2662C24.0055 24.8811 23.405 24.8573 23.0198 25.2129C21.6496 26.4787 19.8668 27.1758 18 27.1758C16.1331 27.1758 14.3504 26.4787 12.9801 25.2129C12.5949 24.8573 11.9945 24.8811 11.6387 25.2662C11.283 25.6513 11.3068 26.2518 11.6919 26.6075C13.414 28.1982 15.6542 29.0742 18 29.0742C20.3457 29.0742 22.5859 28.1982 24.308 26.6075ZM19.8984 13.5703V20.3203C19.8984 21.6579 18.8102 22.7461 17.4727 22.7461H16.6992C16.175 22.7461 15.75 22.3211 15.75 21.7969C15.75 21.2726 16.175 20.8477 16.6992 20.8477H17.4727C17.7634 20.8477 18 20.6111 18 20.3203V13.5703C18 13.0461 18.425 12.6211 18.9492 12.6211C19.4735 12.6211 19.8984 13.0461 19.8984 13.5703ZM26.4375 16.2246V13.5176C26.4375 13.0225 26.0361 12.6211 25.541 12.6211C25.0459 12.6211 24.6445 13.0225 24.6445 13.5176V16.2246C24.6445 16.7197 25.0459 17.1211 25.541 17.1211C26.0361 17.1211 26.4375 16.7197 26.4375 16.2246ZM9.77344 16.2246C9.77344 16.7197 10.1748 17.1211 10.6699 17.1211C11.165 17.1211 11.5664 16.7197 11.5664 16.2246V13.5176C11.5664 13.0225 11.165 12.6211 10.6699 12.6211C10.1748 12.6211 9.77344 13.0225 9.77344 13.5176V16.2246Z" fill="white"/>
</svg>
